# xmcd
#
# Track frame offsets: 
#        150
#        9441
#        19423
#        28971
#        40594
#        47049
#        54378
#        62917
#        70570
#        77813
#        86343
#        96742
#        103203
#        112312
#        121457
#        131310
#        140544
#        150251
#        159923
#        172722
#
# Disc length: 2454 seconds
#
# Revision: 0
# Processed by: cddbd v1.5.2PL0 Copyright (c) Steve Scherf et al.
# Submitted via: ExactAudioCopyFreeDBPlugin 1.0
#
DISCID=04099414
DTITLE=Leo Fontaine - Leo Fontaine - Songbook I
DYEAR=2005
DGENRE=Country
TTITLE0=Bouquet Of Roses
TTITLE1=Before I Met You
TTITLE2=Castle In The Sky
TTITLE3=Crystal Chandeliers
TTITLE4=Columbus Stockade
TTITLE5=Here Today And Gone Tomorrow
TTITLE6=It's A Lovely Lovely World
TTITLE7=I'm Not In Love With You
TTITLE8=I Don't Care If Tomorrow Never Comes
TTITLE9=It's A Sin
TTITLE10=I Wonder Where You AreTonight
TTITLE11=If I Had You To Have And To Hold
TTITLE12=I'll Step Aside
TTITLE13=I'll Be There
TTITLE14=If Teardrops Were Pennies
TTITLE15=Let's Live A Little
TTITLE16=Live And Let Live
TTITLE17=Mansion On The Hill
TTITLE18=Let Me Lie On The Lone Prairie
TTITLE19=Celtic Jam
EXTD=
EXTT0=
EXTT1=
EXTT2=
EXTT3=
EXTT4=
EXTT5=
EXTT6=
EXTT7=
EXTT8=
EXTT9=
EXTT10=
EXTT11=
EXTT12=
EXTT13=
EXTT14=
EXTT15=
EXTT16=
EXTT17=
EXTT18=
EXTT19=
PLAYORDER=
